<svg xmlns="http://www.w3.org/2000/svg" viewBox="0 0 183.56 183.12">
    <defs>
        <style>
            .cls-1,.cls-2,.cls-3,.cls-4,.cls-6{stroke:#000;stroke-miterlimit:10;}.cls-1,.cls-2{stroke-width:4px;}.cls-1{fill:url(#radial-gradient);}.cls-2,.cls-3{fill:none;}.cls-4{stroke-width:2px;fill:url(#linear-gradient);}.cls-5{font-size:49.89px;font-family:BaskOldFace,
            Baskerville Old
            Face;}.cls-6{stroke-width:3px;fill:url(#linear-gradient-2);}.cls-7{fill-rule:evenodd;}
        </style>
        <radialGradient id="radial-gradient" cx="93" cy="93.05" r="87.22"
            gradientTransform="matrix(0.88, -0.47, 0.23, 0.43, -10.31, 96.94)"
            >
            <stop offset="0" stop-color="#fff" />
            <stop offset="1" stop-color="#c9c9c9" />
        </radialGradient>
        <linearGradient id="linear-gradient" x1="19.62" y1="17.46" x2="61" y2="65.64"
            gradientUnits="userSpaceOnUse">
            <stop offset="0" stop-color="#fff" />
            <stop offset="1" stop-color="#d4d4d4" />
        </linearGradient>
        <linearGradient id="linear-gradient-2" x1="95.46" y1="140.3" x2="181.46" y2="164.85"
            gradientUnits="userSpaceOnUse">
            <stop offset="0" stop-color="#fff" />
            <stop offset="0.37" stop-color="#f5f5f6" />
            <stop offset="0.99" stop-color="#dbdcdd" />
            <stop offset="1" stop-color="#dadbdc" />
        </linearGradient>
    </defs>
    <title>wiki_game_icon</title>
    <g id="Layer_2">
        <g id="Icon">
            <g id="Globe">
                <path class="cls-1"
                    d="M180.7,93.05a87.71,87.71,0,1,1-20.31-56.13A87.3,87.3,0,0,1,180.7,93.05Z" />
                <ellipse class="cls-2" cx="93" cy="93.05" rx="54.8" ry="87.7" />
                <line class="cls-2" x1="93" y1="5" x2="93" y2="180.75" />
                <line class="cls-3" x1="153.3" y1="63.61" x2="153.3" y2="63.61" />
                <path class="cls-2" d="M5.3,93.05H180.7" />
                <path class="cls-2"
                    d="M160.39,36.92C144.31,47.77,120.09,54.68,93,54.68S41.69,47.77,25.61,36.92" />
                <path class="cls-2"
                    d="M25.61,149.18c16.08-10.86,40.3-17.76,67.39-17.76s51.31,6.9,67.39,17.76" />
            </g>
            <g id="W">
                <circle class="cls-4" cx="32.75" cy="32.75" r="31.75" />
                <text class="cls-5" transform="translate(5.54 52.31)">W</text>
            </g>
            <g id="Joystick">
                <path class="cls-6"
                    d="M167.71,125.9a14.47,14.47,0,0,0-6-5.11,18.65,18.65,0,0,0-10-1.25c-3.34.44-4.82,3.62-6.11,6.4s-2.43,5.23-5.07,5.58l-13.68,2.7c-2.58.67-4.56-1.17-6.81-3.25s-4.82-4.46-8.08-3.6a18.53,18.53,0,0,0-8.79,5,14.65,14.65,0,0,0-3.72,7.5c-.13.7-.24,1.47-.36,2.18-1.8,10.46-5.64,34.66,5,39.29h0l.09.05c4,1.81,8.54-5.44,11.7-10.54.71-1.14,1.36-2.18,2-3.05.36-.72,1.84-3.11,5.91-3.91l30.94-6.09c4.08-.81,6.35.84,7,1.37.89.57,1.88,1.3,3,2.08,4.88,3.54,11.83,8.57,14.86,5.27h0l.08-.09c8-8.4-4.93-29.53-10.47-38.38C168.6,127.32,168.16,126.55,167.71,125.9Z" />
                <path class="cls-7"
                    d="M156.48,131.82a3.39,3.39,0,1,1-2.67,4A3.4,3.4,0,0,1,156.48,131.82Z" />
                <path class="cls-7"
                    d="M158.9,144.09a3.39,3.39,0,1,1-2.68,4A3.39,3.39,0,0,1,158.9,144.09Z" />
                <path class="cls-7"
                    d="M167.81,139.42a3.39,3.39,0,1,1-4-2.67A3.4,3.4,0,0,1,167.81,139.42Z" />
                <circle cx="152.21" cy="142.49" r="3.39"
                    transform="translate(-24.67 32.11) rotate(-11.15)" />
                <path
                    d="M112.18,138.7a4.21,4.21,0,0,1,3.19.64,4.25,4.25,0,0,1,1.81,2.71l.56,2.86,2.87-.56a4.26,4.26,0,0,1,1.64,8.36l-2.86.57.57,2.86a4.27,4.27,0,0,1-6.56,4.36,4.31,4.31,0,0,1-1.81-2.72l-.56-2.86-2.86.57a4.27,4.27,0,0,1-1.65-8.37l2.86-.56-.56-2.86a4.26,4.26,0,0,1,3.36-5Zm1.6,3a1.39,1.39,0,0,0-2,.38,1.4,1.4,0,0,0-.21,1.06l.83,4.26a1.42,1.42,0,0,1-1.12,1.67l-4.26.84a1.43,1.43,0,0,0-1.11,1.66,1.46,1.46,0,0,0,.6.9,1.4,1.4,0,0,0,1.06.21l4.26-.84a1.42,1.42,0,0,1,1.67,1.12l.84,4.26a1.41,1.41,0,0,0,1.66,1.11,1.34,1.34,0,0,0,.89-.6,1.38,1.38,0,0,0,.22-1.05l-.84-4.26a1.42,1.42,0,0,1,1.12-1.67l4.26-.84a1.43,1.43,0,0,0,.9-.6,1.42,1.42,0,0,0-.39-2,1.37,1.37,0,0,0-1-.21l-4.26.84a1.44,1.44,0,0,1-1.68-1.13l-.84-4.26A1.36,1.36,0,0,0,113.78,141.71Z" />
            </g>
        </g>
    </g>
</svg>