<svg id="Icon" xmlns="http://www.w3.org/2000/svg" viewBox="0 0 184.82 184.5">
    <defs>
        <style>
            .cls-1,.cls-4{stroke:#000;}.cls-1,.cls-2,.cls-3,.cls-4{stroke-miterlimit:10;}.cls-1,.cls-2{stroke-width:4px;}.cls-1{fill:url(#radial-gradient);}.cls-2,.cls-3{fill:none;stroke:#231f20;}.cls-4{stroke-width:2px;fill:url(#linear-gradient);}.cls-5{font-size:49.89px;font-family:BaskOldFace,
            Baskerville Old Face;}.cls-6{fill:url(#linear-gradient-2);}.cls-7{fill-rule:evenodd;}
        </style>
        <radialGradient cx="96" cy="97.05"
            gradientTransform="matrix(0.88, -0.47, 0.23, 0.43, -10.87, 100.64)"
            id="radial-gradient" r="87.22">
            <stop offset="0" stop-color="#fff" />
            <stop offset="1" stop-color="#c9c9c9" />
        </radialGradient>
        <linearGradient id="linear-gradient" x1="19.62" y1="17.46" x2="61" y2="65.64"
            gradientUnits="userSpaceOnUse">
            <stop offset="0" stop-color="#fff" />
            <stop offset="1" stop-color="#d4d4d4" />
        </linearGradient>
        <linearGradient id="linear-gradient-2" x1="98.46" y1="144.3" x2="184.46" y2="168.85"
            gradientUnits="userSpaceOnUse">
            <stop offset="0" stop-color="#fff" />
            <stop offset="0.37" stop-color="#f5f5f6" />
            <stop offset="0.99" stop-color="#dbdcdd" />
            <stop offset="1" stop-color="#dadbdc" />
        </linearGradient>
    </defs>
    <title>Wikigame SVG</title>
    <g id="Globe">
        <path class="cls-1"
            d="M183.7,97.05a87.71,87.71,0,1,1-20.31-56.13A87.3,87.3,0,0,1,183.7,97.05Z"
            transform="translate(-3 -4)" />
        <ellipse class="cls-2" cx="93" cy="93.05" rx="54.8" ry="87.7" />
        <line class="cls-2" x1="93" y1="5" x2="93" y2="180.75" />
        <line class="cls-3" x1="153.3" y1="63.61" x2="153.3" y2="63.61" />
        <path class="cls-2" d="M8.3,97.05H183.7" transform="translate(-3 -4)" />
        <path class="cls-2"
            d="M163.39,40.92C147.31,51.77,123.09,58.68,96,58.68S44.69,51.77,28.61,40.92a87.69,87.69,0,0,1,134.78,0Z"
            transform="translate(-3 -4)" />
        <path class="cls-2"
            d="M163.39,153.18a87.71,87.71,0,0,1-134.78,0c16.08-10.86,40.3-17.76,67.39-17.76S147.31,142.32,163.39,153.18Z"
            transform="translate(-3 -4)" />
    </g>
    <g id="W">
        <circle class="cls-4" cx="32.75" cy="32.75" r="31.75" />
        <text class="cls-5" transform="translate(5.54 52.31)">W</text>
    </g>
    <g id="Joystick">
        <path class="cls-6"
            d="M170.71,129.9a14.47,14.47,0,0,0-6-5.11,18.65,18.65,0,0,0-10-1.25c-3.34.44-4.82,3.62-6.11,6.4s-2.43,5.23-5.07,5.58l-13.68,2.7c-2.58.67-4.56-1.17-6.81-3.25s-4.82-4.46-8.08-3.6a18.53,18.53,0,0,0-8.79,5,14.65,14.65,0,0,0-3.72,7.5c-.13.7-.24,1.47-.36,2.18-1.8,10.46-5.64,34.66,5,39.29h0l.09.05c4,1.81,8.54-5.44,11.7-10.54.71-1.14,1.36-2.19,2-3.05.36-.72,1.84-3.11,5.91-3.91l30.94-6.09c4.08-.81,6.35.84,7,1.37.89.57,1.88,1.3,3,2.08,4.88,3.54,11.83,8.57,14.86,5.27h0l.08-.09c8-8.4-4.93-29.53-10.47-38.38C171.6,131.32,171.16,130.55,170.71,129.9Z"
            transform="translate(-3 -4)" />
        <path
            d="M174.47,130.54c-.37-.59-.74-1.23-1.11-1.8a17.42,17.42,0,0,0-7.47-6.54,21.45,21.45,0,0,0-11.57-1.48c-4.88.64-6.71,4.59-8.31,8-.94,2-1.78,3.83-2.91,4h0l-.12,0-13.73,2.7-.14,0c-1.09.27-2.53-1.06-4.16-2.57-2.78-2.57-6-5.52-10.73-4.27a21.47,21.47,0,0,0-10.15,5.76,17.41,17.41,0,0,0-4.42,8.84c-.12.65-.22,1.37-.34,2C97.45,156.09,93,184.6,107,188.3c5.85,1.55,10.75-6.35,14.25-12,.71-1.16,1.37-2.22,1.93-3h0a1.35,1.35,0,0,0,.18-.36c.17-.33,1-1.72,3.88-2.28l30.94-6.1c3.28-.64,4.51.69,4.52.69h0a1.45,1.45,0,0,0,.35.26c.8.53,1.78,1.24,2.84,2,5.06,3.66,13.91,10.72,19.24,4.19C193.5,161.43,180.24,139.75,174.47,130.54Zm8,39.84-.08.09h0c-3,3.3-10-1.73-14.86-5.27-1.09-.78-2.08-1.51-3-2.08-.6-.53-2.87-2.18-7-1.37l-30.94,6.09c-4.07.8-5.55,3.19-5.91,3.91-.59.86-1.24,1.91-2,3.05-3.16,5.1-7.66,12.35-11.7,10.54l-.09-.05h0c-10.61-4.63-6.77-28.83-5-39.29.12-.71.23-1.48.36-2.18a14.65,14.65,0,0,1,3.72-7.5,18.53,18.53,0,0,1,8.79-5c3.26-.86,5.84,1.53,8.08,3.6s4.23,3.92,6.81,3.25l13.68-2.7c2.64-.35,3.78-2.81,5.07-5.58s2.77-6,6.11-6.4a18.65,18.65,0,0,1,10,1.25,14.47,14.47,0,0,1,6,5.11c.45.65.89,1.42,1.32,2.1C177.57,140.85,190.52,162,182.5,170.38Z"
            transform="translate(-3 -4)" />
        <path class="cls-7" d="M159.48,135.82a3.39,3.39,0,1,1-2.67,4A3.4,3.4,0,0,1,159.48,135.82Z"
            transform="translate(-3 -4)" />
        <path class="cls-7" d="M161.9,148.09a3.39,3.39,0,1,1-2.68,4A3.39,3.39,0,0,1,161.9,148.09Z"
            transform="translate(-3 -4)" />
        <path class="cls-7" d="M170.81,143.42a3.39,3.39,0,1,1-4-2.67A3.4,3.4,0,0,1,170.81,143.42Z"
            transform="translate(-3 -4)" />
        <circle cx="155.21" cy="146.49" r="3.39"
            transform="translate(-28.39 28.76) rotate(-11.15)" />
        <path
            d="M115.18,142.7a4.21,4.21,0,0,1,3.19.64,4.25,4.25,0,0,1,1.81,2.71l.56,2.86,2.86-.56A4.25,4.25,0,0,1,128,154.9a4.19,4.19,0,0,1-2.71,1.81l-2.86.57.57,2.86a4.27,4.27,0,0,1-6.56,4.36,4.31,4.31,0,0,1-1.81-2.72l-.56-2.86-2.86.57a4.27,4.27,0,0,1-1.65-8.37l2.86-.56-.56-2.86a4.26,4.26,0,0,1,3.36-5Zm1.6,3a1.39,1.39,0,0,0-2,.38,1.4,1.4,0,0,0-.21,1.06l.83,4.26a1.42,1.42,0,0,1-1.12,1.67l-4.26.84a1.43,1.43,0,0,0-1.11,1.66,1.46,1.46,0,0,0,.6.9,1.4,1.4,0,0,0,1.06.21l4.26-.84a1.42,1.42,0,0,1,1.67,1.12l.84,4.26a1.41,1.41,0,0,0,1.66,1.11,1.34,1.34,0,0,0,.89-.6,1.38,1.38,0,0,0,.22-1.05l-.84-4.26a1.42,1.42,0,0,1,1.12-1.67l4.26-.84a1.43,1.43,0,0,0,.9-.6,1.42,1.42,0,0,0-.39-2,1.37,1.37,0,0,0-1-.21l-4.26.84a1.44,1.44,0,0,1-1.68-1.13l-.84-4.26A1.36,1.36,0,0,0,116.78,145.71Z"
            transform="translate(-3 -4)" />
    </g>
</svg>